<svg width="1280" height="132" xmlns="http://www.w3.org/2000/svg" overflow="hidden"><defs><clipPath id="a"><path d="M0 337h1280v132H0z"/></clipPath></defs><g clip-path="url(#a)" transform="translate(0 -337)"><path d="M1274.2 243.515c-56.63-18.816-239.49-53.087-340.147-59.535-100.659-6.449-175.276 7.686-263.817 20.843-108.345 16.099-188.14 22.001-271.644 22.387-83.504.386-163.03-9.97-229.376-20.071-66.345-10.102-140.73-33.59-168.695-40.537-.165 129.021.496.893-.087 129.713.08.133 1271.186.043 1273.406.558-.99-52.175.18-53.398.36-53.358z" stroke="#0052CC" stroke-width="1.325" stroke-miterlimit="8" fill="#0052CC" fill-rule="evenodd" transform="matrix(-1.00616 0 0 -1 1279.96 633.431)"/></g></svg>